<svg width="663" height="72" viewBox="0 0 663 72" fill="none" xmlns="http://www.w3.org/2000/svg">
<g clip-path="url(#clip0_1023_487)">
<path d="M67.7117 33.6233L38.8818 33.6205L54.8467 17.6531L50.07 12.8748L34.1051 28.8422L34.1079 0H27.3565L27.3509 28.8422L6.96585 8.44483L2.19197 13.2231L22.5743 33.6177L0 33.6149V40.3713L22.5743 40.3741L2.1864 60.766L6.96028 65.5414L27.3509 45.1524L27.3481 67.7342H34.1023L34.1051 45.1524L50.0645 61.1226L54.8411 56.3471L38.879 40.3769L67.7117 40.3797V33.6233Z" fill="#5B1FD9"/>
<path d="M127.226 20.9158C124.898 15.2014 116.381 13.2734 108.201 16.6056C100.02 19.9406 95.2743 27.2738 97.6028 32.9882C89.4225 36.3232 84.6765 43.6564 87.005 49.3708C89.3334 55.0852 97.8506 57.0132 106.031 53.6809C108.359 59.3953 116.877 61.3234 125.057 57.9911C133.237 54.6561 137.983 47.3229 135.655 41.6085C143.835 38.2735 148.581 30.9404 146.252 25.226C143.924 19.5116 135.407 17.5835 127.226 20.9158Z" fill="#AFF73C"/>
<path d="M219.568 39.5493L236.555 31.3691L217.602 29.9064L231.475 18.5974L214.905 21.2415L218.195 3.02002L203.556 20.2496L200.197 7.28283L197.729 20.9406L177.491 7.09059L188.549 25.6018L173.422 24.8022L187.978 34.7627L165.546 38.8137L188.398 42.9456L173.52 60.8076L195.938 48.0052L188.978 71.0189L204.336 52.9423L224.138 66.2601L214.986 46.9549L229.475 49.0055L219.568 39.5493Z" fill="#5B1FD9"/>
<path d="M323 35.1558L294.878 29.4052L289.129 1.27344L283.377 29.4052L255.255 35.1558L283.377 40.9092H283.383L289.129 69.0076L294.872 40.9092H294.878L323 35.1558Z" fill="#AFF73C"/>
<path d="M123.801 43.4114C125.659 43.4114 127.165 40.6159 127.165 37.1676C127.165 33.7193 125.659 30.9238 123.801 30.9238C121.942 30.9238 120.436 33.7193 120.436 37.1676C120.436 40.6159 121.942 43.4114 123.801 43.4114Z" fill="white"/>
<path d="M124.72 41.3493C125.944 41.3493 126.937 39.6017 126.937 37.4459C126.937 35.2901 125.944 33.5425 124.72 33.5425C123.495 33.5425 122.503 35.2901 122.503 37.4459C122.503 39.6017 123.495 41.3493 124.72 41.3493Z" fill="black"/>
<path d="M130.527 43.4114C132.385 43.4114 133.891 40.6159 133.891 37.1676C133.891 33.7193 132.385 30.9238 130.527 30.9238C128.669 30.9238 127.162 33.7193 127.162 37.1676C127.162 40.6159 128.669 43.4114 130.527 43.4114Z" fill="white"/>
<path d="M131.365 41.3493C132.59 41.3493 133.582 39.6017 133.582 37.4459C133.582 35.2901 132.59 33.5425 131.365 33.5425C130.141 33.5425 129.148 35.2901 129.148 37.4459C129.148 39.6017 130.141 41.3493 131.365 41.3493Z" fill="black"/>
<path d="M204.522 31.0685C205.555 31.0685 206.432 32.2387 206.75 33.8686H207.803C207.368 31.2747 206.062 29.394 204.522 29.394C202.981 29.394 201.678 31.2747 201.241 33.8686H202.294C202.611 32.2415 203.488 31.0685 204.522 31.0685Z" fill="white"/>
<path d="M207.909 34.6738H206.859C206.873 34.8521 206.881 35.0332 206.881 35.2171C206.881 37.5073 205.825 39.3657 204.522 39.3657C203.218 39.3657 202.163 37.5073 202.163 35.2171C202.163 35.0332 202.171 34.8521 202.185 34.6738H201.135C201.099 35.0305 201.082 35.3954 201.082 35.7716C201.082 39.2961 202.622 42.1519 204.519 42.1519C206.416 42.1519 207.959 39.2933 207.959 35.7716C207.959 35.3954 207.942 35.0305 207.906 34.6738H207.909Z" fill="white"/>
<path d="M204.522 31.0684C203.488 31.0684 202.611 32.2385 202.293 33.8684H206.75C206.432 32.2413 205.555 31.0684 204.522 31.0684Z" fill="white"/>
<path d="M202.163 35.2171C202.163 37.5073 203.218 39.3657 204.522 39.3657C205.825 39.3657 206.881 37.5073 206.881 35.2171C206.881 35.0332 206.872 34.8521 206.858 34.6738H202.188C202.174 34.8521 202.165 35.0332 202.165 35.2171H202.163Z" fill="black"/>
<path d="M206.859 34.6739H207.909C207.884 34.398 207.85 34.1306 207.803 33.8687H206.75C206.8 34.1278 206.836 34.3952 206.859 34.6739Z" fill="black"/>
<path d="M202.293 33.8687H201.241C201.196 34.1306 201.16 34.398 201.135 34.6739H202.185C202.204 34.3952 202.24 34.125 202.293 33.8687Z" fill="black"/>
<path d="M202.294 33.8687C202.244 34.1278 202.207 34.3952 202.185 34.6739H206.856C206.836 34.3952 206.8 34.125 206.747 33.8687H202.291H202.294Z" fill="black"/>
<path d="M211.279 31.0685C212.312 31.0685 213.19 32.2387 213.507 33.8686H214.56C214.126 31.2747 212.819 29.394 211.279 29.394C209.739 29.394 208.435 31.2747 207.998 33.8686H209.051C209.368 32.2415 210.246 31.0685 211.279 31.0685Z" fill="white"/>
<path d="M214.663 34.6738H213.613C213.627 34.8521 213.635 35.0332 213.635 35.2171C213.635 37.5073 212.58 39.3657 211.276 39.3657C209.973 39.3657 208.917 37.5073 208.917 35.2171C208.917 35.0332 208.925 34.8521 208.939 34.6738H207.889C207.853 35.0305 207.836 35.3954 207.836 35.7716C207.836 39.2961 209.377 42.1519 211.273 42.1519C213.17 42.1519 214.713 39.2933 214.713 35.7716C214.713 35.3954 214.696 35.0305 214.66 34.6738H214.663Z" fill="white"/>
<path d="M211.279 31.0684C210.246 31.0684 209.368 32.2385 209.051 33.8684H213.507C213.19 32.2413 212.312 31.0684 211.279 31.0684Z" fill="white"/>
<path d="M208.92 35.2171C208.92 37.5073 209.976 39.3657 211.279 39.3657C212.583 39.3657 213.638 37.5073 213.638 35.2171C213.638 35.0332 213.63 34.8521 213.616 34.6738H208.945C208.931 34.8521 208.923 35.0332 208.923 35.2171H208.92Z" fill="black"/>
<path d="M213.613 34.6739H214.663C214.638 34.398 214.605 34.1306 214.557 33.8687H213.504C213.555 34.1278 213.591 34.3952 213.613 34.6739Z" fill="black"/>
<path d="M209.048 33.8687H207.995C207.95 34.1306 207.914 34.398 207.889 34.6739H208.939C208.959 34.3952 208.995 34.125 209.048 33.8687Z" fill="black"/>
<path d="M209.048 33.8687C208.998 34.1278 208.962 34.3952 208.939 34.6739H213.61C213.591 34.3952 213.555 34.125 213.502 33.8687H209.045H209.048Z" fill="black"/>
<path d="M26.5738 39.8225C28.6397 39.8225 30.3144 38.1472 30.3144 36.0807C30.3144 34.0141 28.6397 32.3389 26.5738 32.3389C24.508 32.3389 22.8333 34.0141 22.8333 36.0807C22.8333 38.1472 24.508 39.8225 26.5738 39.8225Z" fill="white"/>
<path d="M25.4987 38.2204C26.68 38.2204 27.6377 37.2624 27.6377 36.0807C27.6377 34.8989 26.68 33.9409 25.4987 33.9409C24.3173 33.9409 23.3596 34.8989 23.3596 36.0807C23.3596 37.2624 24.3173 38.2204 25.4987 38.2204Z" fill="black"/>
<path d="M33.8265 39.8225C35.8924 39.8225 37.5671 38.1472 37.5671 36.0807C37.5671 34.0141 35.8924 32.3389 33.8265 32.3389C31.7606 32.3389 30.0859 34.0141 30.0859 36.0807C30.0859 38.1472 31.7606 39.8225 33.8265 39.8225Z" fill="white"/>
<path d="M32.7877 38.2204C33.9691 38.2204 34.9268 37.2624 34.9268 36.0807C34.9268 34.8989 33.9691 33.9409 32.7877 33.9409C31.6064 33.9409 30.6487 34.8989 30.6487 36.0807C30.6487 37.2624 31.6064 38.2204 32.7877 38.2204Z" fill="black"/>
<path d="M285.614 37.9421C287.68 37.9421 289.355 36.2668 289.355 34.2003C289.355 32.1338 287.68 30.4585 285.614 30.4585C283.548 30.4585 281.874 32.1338 281.874 34.2003C281.874 36.2668 283.548 37.9421 285.614 37.9421Z" fill="white"/>
<path d="M288.929 34.2002C288.929 35.3815 287.971 36.3399 286.787 36.3399C285.603 36.3399 284.731 35.4623 284.653 34.3534L286.28 33.9689L284.982 33.0523C285.361 32.4533 286.029 32.0576 286.787 32.0576C287.971 32.0576 288.929 33.0188 288.929 34.2002Z" fill="black"/>
<path d="M292.869 37.9421C294.935 37.9421 296.61 36.2668 296.61 34.2003C296.61 32.1338 294.935 30.4585 292.869 30.4585C290.804 30.4585 289.129 32.1338 289.129 34.2003C289.129 36.2668 290.804 37.9421 292.869 37.9421Z" fill="white"/>
<path d="M293.889 34.1974C293.889 35.3815 292.931 36.3399 291.747 36.3399C290.564 36.3399 289.692 35.4623 289.614 34.3506L291.24 33.9661L289.942 33.0495C290.321 32.4533 290.99 32.0576 291.747 32.0576C292.931 32.0576 293.889 33.0161 293.889 34.1974Z" fill="black"/>
</g>
<g clip-path="url(#clip1_1023_487)">
<path d="M407.712 33.6233L378.882 33.6205L394.847 17.6531L390.07 12.8748L374.105 28.8422L374.108 0H367.356L367.351 28.8422L346.966 8.44483L342.192 13.2231L362.574 33.6177L340 33.6149V40.3713L362.574 40.3741L342.186 60.766L346.96 65.5414L367.351 45.1524L367.348 67.7342H374.102L374.105 45.1524L390.064 61.1226L394.841 56.3471L378.879 40.3769L407.712 40.3797V33.6233Z" fill="#5B1FD9"/>
<path d="M467.226 20.9158C464.898 15.2014 456.381 13.2734 448.2 16.6056C440.02 19.9406 435.274 27.2738 437.603 32.9882C429.422 36.3232 424.676 43.6564 427.005 49.3708C429.333 55.0852 437.85 57.0132 446.031 53.6809C448.359 59.3953 456.876 61.3234 465.057 57.9911C473.237 54.6561 477.983 47.3229 475.654 41.6085C483.834 38.2735 488.581 30.9404 486.252 25.226C483.924 19.5116 475.406 17.5835 467.226 20.9158Z" fill="#AFF73C"/>
<path d="M559.568 39.5493L576.555 31.3691L557.601 29.9064L571.475 18.5974L554.905 21.2415L558.195 3.02002L543.555 20.2496L540.196 7.28283L537.729 20.9406L517.491 7.09059L528.549 25.6018L513.422 24.8022L527.978 34.7627L505.545 38.8137L528.398 42.9456L513.52 60.8076L535.938 48.0052L528.978 71.0189L544.335 52.9423L564.138 66.2601L554.986 46.9549L569.475 49.0055L559.568 39.5493Z" fill="#5B1FD9"/>
<path d="M663 35.1558L634.878 29.4052L629.129 1.27344L623.377 29.4052L595.255 35.1558L623.377 40.9092H623.383L629.129 69.0076L634.872 40.9092H634.878L663 35.1558Z" fill="#AFF73C"/>
<path d="M463.801 43.4114C465.659 43.4114 467.165 40.6159 467.165 37.1676C467.165 33.7193 465.659 30.9238 463.801 30.9238C461.942 30.9238 460.436 33.7193 460.436 37.1676C460.436 40.6159 461.942 43.4114 463.801 43.4114Z" fill="white"/>
<path d="M464.72 41.3493C465.944 41.3493 466.937 39.6017 466.937 37.4459C466.937 35.2901 465.944 33.5425 464.72 33.5425C463.496 33.5425 462.503 35.2901 462.503 37.4459C462.503 39.6017 463.496 41.3493 464.72 41.3493Z" fill="black"/>
<path d="M470.527 43.4114C472.385 43.4114 473.892 40.6159 473.892 37.1676C473.892 33.7193 472.385 30.9238 470.527 30.9238C468.669 30.9238 467.163 33.7193 467.163 37.1676C467.163 40.6159 468.669 43.4114 470.527 43.4114Z" fill="white"/>
<path d="M471.365 41.3493C472.59 41.3493 473.583 39.6017 473.583 37.4459C473.583 35.2901 472.59 33.5425 471.365 33.5425C470.141 33.5425 469.148 35.2901 469.148 37.4459C469.148 39.6017 470.141 41.3493 471.365 41.3493Z" fill="black"/>
<path d="M544.522 31.0685C545.556 31.0685 546.433 32.2387 546.75 33.8686H547.803C547.369 31.2747 546.062 29.394 544.522 29.394C542.982 29.394 541.678 31.2747 541.241 33.8686H542.294C542.612 32.2415 543.489 31.0685 544.522 31.0685Z" fill="white"/>
<path d="M547.909 34.6738H546.859C546.873 34.8521 546.881 35.0332 546.881 35.2171C546.881 37.5073 545.826 39.3657 544.522 39.3657C543.219 39.3657 542.163 37.5073 542.163 35.2171C542.163 35.0332 542.172 34.8521 542.185 34.6738H541.135C541.099 35.0305 541.083 35.3954 541.083 35.7716C541.083 39.2961 542.623 42.1519 544.519 42.1519C546.416 42.1519 547.959 39.2933 547.959 35.7716C547.959 35.3954 547.943 35.0305 547.906 34.6738H547.909Z" fill="white"/>
<path d="M544.522 31.0684C543.489 31.0684 542.611 32.2385 542.294 33.8684H546.75C546.433 32.2413 545.555 31.0684 544.522 31.0684Z" fill="white"/>
<path d="M542.163 35.2171C542.163 37.5073 543.219 39.3657 544.522 39.3657C545.826 39.3657 546.881 37.5073 546.881 35.2171C546.881 35.0332 546.873 34.8521 546.859 34.6738H542.188C542.174 34.8521 542.166 35.0332 542.166 35.2171H542.163Z" fill="black"/>
<path d="M546.859 34.6739H547.909C547.884 34.398 547.851 34.1306 547.803 33.8687H546.75C546.801 34.1278 546.837 34.3952 546.859 34.6739Z" fill="black"/>
<path d="M542.294 33.8687H541.241C541.197 34.1306 541.16 34.398 541.135 34.6739H542.185C542.205 34.3952 542.241 34.125 542.294 33.8687Z" fill="black"/>
<path d="M542.294 33.8687C542.244 34.1278 542.208 34.3952 542.186 34.6739H546.856C546.837 34.3952 546.801 34.125 546.748 33.8687H542.291H542.294Z" fill="black"/>
<path d="M551.28 31.0685C552.313 31.0685 553.19 32.2387 553.508 33.8686H554.561C554.126 31.2747 552.82 29.394 551.28 29.394C549.739 29.394 548.436 31.2747 547.999 33.8686H549.051C549.369 32.2415 550.246 31.0685 551.28 31.0685Z" fill="white"/>
<path d="M554.663 34.6738H553.613C553.627 34.8521 553.636 35.0332 553.636 35.2171C553.636 37.5073 552.58 39.3657 551.277 39.3657C549.973 39.3657 548.918 37.5073 548.918 35.2171C548.918 35.0332 548.926 34.8521 548.94 34.6738H547.89C547.854 35.0305 547.837 35.3954 547.837 35.7716C547.837 39.2961 549.377 42.1519 551.274 42.1519C553.171 42.1519 554.714 39.2933 554.714 35.7716C554.714 35.3954 554.697 35.0305 554.661 34.6738H554.663Z" fill="white"/>
<path d="M551.279 31.0684C550.246 31.0684 549.369 32.2385 549.051 33.8684H553.508C553.19 32.2413 552.313 31.0684 551.279 31.0684Z" fill="white"/>
<path d="M548.92 35.2171C548.92 37.5073 549.976 39.3657 551.28 39.3657C552.583 39.3657 553.639 37.5073 553.639 35.2171C553.639 35.0332 553.63 34.8521 553.616 34.6738H548.945C548.932 34.8521 548.923 35.0332 548.923 35.2171H548.92Z" fill="black"/>
<path d="M553.614 34.6739H554.664C554.638 34.398 554.605 34.1306 554.558 33.8687H553.505C553.555 34.1278 553.591 34.3952 553.614 34.6739Z" fill="black"/>
<path d="M549.048 33.8687H547.995C547.951 34.1306 547.915 34.398 547.89 34.6739H548.94C548.959 34.3952 548.995 34.125 549.048 33.8687Z" fill="black"/>
<path d="M549.049 33.8687C548.998 34.1278 548.962 34.3952 548.94 34.6739H553.611C553.591 34.3952 553.555 34.125 553.502 33.8687H549.046H549.049Z" fill="black"/>
<path d="M366.574 39.8225C368.64 39.8225 370.315 38.1472 370.315 36.0807C370.315 34.0141 368.64 32.3389 366.574 32.3389C364.508 32.3389 362.833 34.0141 362.833 36.0807C362.833 38.1472 364.508 39.8225 366.574 39.8225Z" fill="white"/>
<path d="M365.499 38.2204C366.68 38.2204 367.638 37.2624 367.638 36.0807C367.638 34.8989 366.68 33.9409 365.499 33.9409C364.318 33.9409 363.36 34.8989 363.36 36.0807C363.36 37.2624 364.318 38.2204 365.499 38.2204Z" fill="black"/>
<path d="M373.827 39.8225C375.893 39.8225 377.568 38.1472 377.568 36.0807C377.568 34.0141 375.893 32.3389 373.827 32.3389C371.761 32.3389 370.086 34.0141 370.086 36.0807C370.086 38.1472 371.761 39.8225 373.827 39.8225Z" fill="white"/>
<path d="M372.788 38.2204C373.969 38.2204 374.927 37.2624 374.927 36.0807C374.927 34.8989 373.969 33.9409 372.788 33.9409C371.607 33.9409 370.649 34.8989 370.649 36.0807C370.649 37.2624 371.607 38.2204 372.788 38.2204Z" fill="black"/>
<path d="M625.614 37.9421C627.68 37.9421 629.355 36.2668 629.355 34.2003C629.355 32.1338 627.68 30.4585 625.614 30.4585C623.548 30.4585 621.874 32.1338 621.874 34.2003C621.874 36.2668 623.548 37.9421 625.614 37.9421Z" fill="white"/>
<path d="M628.929 34.2002C628.929 35.3815 627.971 36.3399 626.787 36.3399C625.603 36.3399 624.731 35.4623 624.653 34.3534L626.28 33.9689L624.982 33.0523C625.361 32.4533 626.029 32.0576 626.787 32.0576C627.971 32.0576 628.929 33.0188 628.929 34.2002Z" fill="black"/>
<path d="M632.869 37.9421C634.935 37.9421 636.61 36.2668 636.61 34.2003C636.61 32.1338 634.935 30.4585 632.869 30.4585C630.804 30.4585 629.129 32.1338 629.129 34.2003C629.129 36.2668 630.804 37.9421 632.869 37.9421Z" fill="white"/>
<path d="M633.889 34.1974C633.889 35.3815 632.931 36.3399 631.747 36.3399C630.564 36.3399 629.692 35.4623 629.614 34.3506L631.24 33.9661L629.942 33.0495C630.321 32.4533 630.99 32.0576 631.747 32.0576C632.931 32.0576 633.889 33.0161 633.889 34.1974Z" fill="black"/>
</g>
<defs>
<clipPath id="clip0_1023_487">
<rect width="323" height="71.019" fill="white"/>
</clipPath>
<clipPath id="clip1_1023_487">
<rect width="323" height="71.019" fill="white" transform="translate(340)"/>
</clipPath>
</defs>
</svg>
